<svg xmlns="http://www.w3.org/2000/svg" xmlns:xlink="http://www.w3.org/1999/xlink" viewBox="0 0 384 384"><defs><style>.cls-1{fill:none;}.cls-2{clip-path:url(#clip-path);}.cls-3{fill:#22d26b;}.cls-3,.cls-6{fill-rule:evenodd;}.cls-4{opacity:0.4;}.cls-5{clip-path:url(#clip-path-2);}.cls-6{fill:#fff;}</style><clipPath id="clip-path"><rect class="cls-1" width="384" height="384"/></clipPath><clipPath id="clip-path-2"><rect class="cls-1" x="79.55" y="64.5" width="224.91" height="225"/></clipPath></defs><g id="Layer_2" data-name="Layer 2"><g id="Layer_1-2" data-name="Layer 1"><g class="cls-2"><path class="cls-3" d="M192,0C298,0,384,86,384,192S298,384,192,384,0,298,0,192,86,0,192,0"/><g class="cls-4"><g class="cls-5"><path class="cls-6" d="M79.62,279.23,79.55,151.3l76.86,58ZM182.82,67.55l-97.71,67.8,86.57,65.29h40.61l84-67.16-95-65.93a15.47,15.47,0,0,0-18.45,0m44.66,141.52,77-61.53V279.23Zm-55.38,7.64L92.2,289.5H291.88L212,216.71Z"/></g></g><path class="cls-6" d="M182.82,67.55l-97.71,67.8,86.57,65.29h40.61l84-67.16-95-65.93a15.47,15.47,0,0,0-18.45,0M172.1,216.71,92.2,289.5H291.88L212,216.71Z"/></g></g></g></svg>