<svg xmlns="http://www.w3.org/2000/svg" xmlns:xlink="http://www.w3.org/1999/xlink" viewBox="0 0 640 640"><defs><style>.cls-1{fill:none;}.cls-2{clip-path:url(#clip-path);}.cls-3{fill:#0141de;}.cls-4{clip-path:url(#clip-path-2);}</style><clipPath id="clip-path" transform="translate(0 -0.33)"><rect class="cls-1" width="640" height="641"/></clipPath><clipPath id="clip-path-2" transform="translate(0 -0.33)"><rect class="cls-1" width="639.96" height="641"/></clipPath></defs><g id="Layer_2" data-name="Layer 2"><g id="Layer_1-2" data-name="Layer 1"><g class="cls-2"><rect y="451.25" width="131.25" height="188.75" rx="18.75"/><path class="cls-3" d="M282.5,339.08H188.75A18.74,18.74,0,0,0,170,357.83V621.58a18.74,18.74,0,0,0,18.75,18.75H282.5a18.74,18.74,0,0,0,18.75-18.75V357.83a18.74,18.74,0,0,0-18.75-18.75" transform="translate(0 -0.33)"/></g><g class="cls-4"><path d="M451.25,301.58H357.5a18.74,18.74,0,0,0-18.75,18.75V621.58a18.74,18.74,0,0,0,18.75,18.75h93.75A18.74,18.74,0,0,0,470,621.58V320.33a18.74,18.74,0,0,0-18.75-18.75" transform="translate(0 -0.33)"/><path d="M621.25,151.58H527.5a18.74,18.74,0,0,0-18.75,18.75V621.58a18.74,18.74,0,0,0,18.75,18.75h93.75A18.74,18.74,0,0,0,640,621.58V170.33a18.74,18.74,0,0,0-18.75-18.75" transform="translate(0 -0.33)"/></g><g class="cls-2"><path class="cls-3" d="M66.88,412.83a55.46,55.46,0,0,0,53.93-71.35l73.05-51.57a55.85,55.85,0,0,0,87.88-38.35l74.81-15.75a56.1,56.1,0,0,0,99.86-50.41l89.74-79.76a55.6,55.6,0,0,0,27,7.19,56.25,56.25,0,1,0-56.25-56.25,55.72,55.72,0,0,0,4.21,21.18l-89.74,79.77a55.53,55.53,0,0,0-82.47,41.58l-74.8,15.75A56.1,56.1,0,0,0,170,244.08a55.39,55.39,0,0,0,2.32,15.1l-73,51.58a55.74,55.74,0,0,0-32.39-10.43,56.25,56.25,0,0,0,0,112.5" transform="translate(0 -0.33)"/></g></g></g></svg>