
<svg width="285" height="217" viewBox="0 0 285 217" fill="none" xmlns="http://www.w3.org/2000/svg">
<g clip-path="url(#clip0_170_45)">
<path d="M263.691 197.241C254.354 204.367 242.977 211.585 231.792 214.989C228.568 215.999 225.241 216.644 221.873 216.912C218.724 217.165 215.556 216.919 212.484 216.182C204.411 214.17 196.924 210.646 189.68 206.53C187.313 205.183 184.973 203.774 182.647 202.334C178.85 199.983 175.091 197.55 171.322 195.174C170.758 194.814 170.197 194.461 169.632 194.112H169.629C168.719 193.539 167.807 192.975 166.892 192.419C166.732 192.319 166.571 192.223 166.407 192.124C164.679 191.075 162.922 190.05 161.136 189.049C160.917 188.929 160.698 188.806 160.479 188.686C157.022 186.765 153.47 185.022 149.835 183.466C147.447 182.458 145.029 181.55 142.587 180.775H142.583C141.65 180.481 140.712 180.203 139.772 179.949C136.951 179.174 134.077 178.61 131.173 178.263C127.171 177.777 123.123 177.81 119.129 178.359C118.859 178.397 118.592 178.434 118.322 178.479C107.513 180.213 97.6488 186.061 86.7923 187.438C86.44 187.483 86.0911 187.524 85.7388 187.555C85.5883 187.569 85.4378 187.586 85.2873 187.596C82.1323 187.867 78.9573 187.789 75.8194 187.363C67.0528 186.205 58.5154 182.609 50.8296 178.078C32.8619 167.483 18.2908 151.199 9.43181 132.341C7.91053 129.109 6.55987 125.799 5.38543 122.425C2.10176 113.069 0.293434 103.257 0.0255553 93.3426C-0.805616 58.944 18.7012 24.4323 49.328 8.87473C79.9582 -6.6828 120.251 -1.53808 144.954 22.362C159.939 36.8605 168.61 56.507 179.887 74.0594C191.164 91.6083 207.192 108.372 227.866 110.929C238.397 112.232 249.418 109.712 259.512 112.989C265.101 114.806 269.869 118.281 273.71 122.71C276.292 125.715 278.454 129.059 280.134 132.649C281.365 135.245 282.364 137.945 283.12 140.718C283.26 141.229 283.39 141.739 283.516 142.25C288.544 162.829 280.51 184.402 263.691 197.241Z" fill="#F2F2F2"/>
<path d="M95.487 159.987H63.3347C58.5176 159.987 54.6125 163.9 54.6125 168.727V168.728C54.6125 173.555 58.5176 177.468 63.3347 177.468H95.487C100.304 177.468 104.209 173.555 104.209 168.727C104.209 163.9 100.304 159.987 95.487 159.987Z" fill="#3F3D56"/>
<path d="M85.7387 173.012V187.555C82.4359 187.875 79.1073 187.811 75.8193 187.363V173.012H85.7387Z" fill="#3F3D56"/>
<path d="M119.129 178.359C118.859 178.397 118.592 178.434 118.322 178.479C107.513 180.213 97.6488 186.06 86.7923 187.438C86.4399 187.483 86.0911 187.524 85.7388 187.555C85.5883 187.569 85.4378 187.586 85.2873 187.596C82.6364 184.995 79.9855 182.225 77.4955 179.356C76.1444 177.804 74.8378 176.22 73.6098 174.616C70.4219 170.476 67.7198 166.219 65.9343 162.037C66.1156 160.032 64.8705 155.394 64.2754 151.843L64.272 151.84C64.0188 150.349 63.882 149.053 64.0086 148.221C64.7337 143.415 68.6501 143.967 69.8541 139.258C70.9402 138.354 72.0966 137.539 73.3122 136.821C73.514 136.701 73.7193 136.581 73.9313 136.461L86.9975 127.412L91.9913 132.32L99.5916 139.792L107.828 147.885L100.837 154.963C100.837 154.963 106.679 161.711 113.509 170.709C115.343 173.125 117.248 175.706 119.129 178.359Z" fill="#2F2E41"/>
<path d="M231.792 173.012V214.989C228.568 215.999 225.241 216.644 221.873 216.912V173.012H231.792Z" fill="#3F3D56"/>
<path d="M244.619 169.584H212.467C207.65 169.584 203.745 173.497 203.745 178.325V178.325C203.745 183.152 207.65 187.065 212.467 187.065H244.619C249.436 187.065 253.341 183.152 253.341 178.325C253.341 173.497 249.436 169.584 244.619 169.584Z" fill="#3F3D56"/>
<path d="M166.407 192.124C164.68 191.075 162.923 190.05 161.136 189.049C160.917 188.929 160.698 188.806 160.479 188.686L161.656 188.182L164.83 186.814L164.861 186.801L164.895 186.917L166.407 192.124Z" fill="#FFB6B6"/>
<path d="M171.322 195.174C170.758 194.814 170.197 194.461 169.632 194.112H169.629C168.719 193.539 167.807 192.975 166.893 192.419C166.732 192.319 166.571 192.223 166.407 192.124C164.68 191.075 162.923 190.05 161.136 189.049C160.917 188.929 160.698 188.806 160.479 188.686C157.023 186.765 153.47 185.022 149.835 183.466C147.447 182.458 145.029 181.55 142.587 180.775H142.583L140.665 177.557L132.028 163.062L130.13 159.878C130.13 159.878 123.655 161.797 114.491 163.638C111.156 164.309 107.469 164.967 103.601 165.523C99.4652 166.112 95.128 166.582 90.8183 166.808C88.7626 166.918 86.7137 166.973 84.6956 166.955C79.4794 166.921 74.4685 166.431 70.08 165.266C68.6161 163.888 64.2037 162.013 61.0432 160.296H61.0398C59.7126 159.576 58.6112 158.887 58.0332 158.274C54.7017 154.743 57.5475 151.991 54.5854 148.138C54.5455 146.725 54.6175 145.311 54.8009 143.909C54.8316 143.676 54.8624 143.439 54.9 143.199L55.8338 127.309L62.7705 126.391L73.326 124.992L84.7606 123.477L86.0194 133.355C86.0194 133.355 94.9228 132.903 106.203 133.054C124.322 133.301 148.566 135.11 151.849 142.877C152.157 143.607 152.465 144.344 152.773 145.081C153.505 146.843 154.23 148.614 154.948 150.394C157.551 156.837 160.035 163.343 162.302 169.492C163.712 173.317 165.039 177.005 166.26 180.456C167.242 183.233 168.151 185.858 168.983 188.275C169.742 190.482 170.429 192.514 171.042 194.338C171.137 194.622 171.23 194.903 171.322 195.174Z" fill="#2F2E41"/>
<path d="M107.511 98.8994L85.6016 80.2532L99.8563 65.797L109.801 82.1199L146.665 89.4435C147.773 88.6076 149.101 88.1129 150.485 88.0197C151.869 87.9266 153.25 88.2391 154.46 88.919C155.67 89.5989 156.657 90.617 157.299 91.849C157.942 93.081 158.213 94.4737 158.079 95.8574C157.946 97.2411 157.413 98.5559 156.547 99.6415C155.68 100.727 154.517 101.537 153.199 101.971C151.882 102.406 150.466 102.447 149.126 102.09C147.785 101.733 146.577 100.992 145.649 99.9585L107.511 98.8994Z" fill="#A0616A"/>
<path d="M66.2383 55.7476C63.7062 64.0019 87.8212 83.6887 87.8212 83.6887C88.0892 81.7071 101.762 98.795 102.692 97.2475C105.336 92.8492 108.244 81.9772 111.297 80.5877C113.042 79.793 103.029 68.7478 103.029 68.7478C103.029 68.7478 97.9214 61.9764 91.1777 53.3944C89.316 50.9328 86.8631 48.9831 84.0472 47.7269C81.2313 46.4707 78.1441 45.9489 75.0728 46.2099C75.0728 46.2099 68.7704 47.4932 66.2383 55.7476Z" fill="#3F3D56"/>
<path d="M76.9006 37.4742C85.0848 37.4742 91.7194 30.8259 91.7194 22.6248C91.7194 14.4237 85.0848 7.77539 76.9006 7.77539C68.7164 7.77539 62.0818 14.4237 62.0818 22.6248C62.0818 30.8259 68.7164 37.4742 76.9006 37.4742Z" fill="#A0616A"/>
<path d="M84.3099 47.2887C87.5024 49.1906 89.4122 52.685 90.5085 56.2409C92.5381 62.8242 93.7598 69.6308 94.1466 76.5103L95.3045 97.1061L109.645 140.96C97.2166 151.499 50.4991 143.355 50.4991 143.355C50.4991 143.355 49.065 142.876 50.4991 141.439C51.9331 140.002 53.3292 141.275 51.8952 139.838C50.4611 138.401 51.4497 140.002 51.9277 138.565C52.4058 137.128 51.9277 138.086 51.4497 137.607C50.9717 137.128 55.1503 132.817 55.1503 132.817L51.3261 107.644L46.5459 56.8689C52.2822 49.6837 63.8187 45.4481 63.8187 45.4481L66.7996 40.0714L81.7039 41.2662L84.3099 47.2887Z" fill="#3F3D56"/>
<path d="M89.1163 14.7355C90.268 15.5963 91.1213 16.7975 91.556 18.1698C91.723 15.9271 91.7336 13.6755 91.5877 11.4314C91.4131 9.85449 90.3051 9.49978 89.0222 9.08877C87.8637 8.71743 86.5534 8.29797 86.2009 6.76711C81.5427 2.22618 73.4338 2.45516 67.8842 4.03911C64.8306 4.91073 63.0735 6.03058 62.9163 6.6866L62.8837 6.82164L62.7597 6.88377C60.4058 8.06313 59.9477 11.7873 59.9779 14.7037C60.0353 20.1985 61.9286 26.4392 62.9952 26.9462C63.0517 26.973 63.0659 26.9625 63.0904 26.9421C64.6964 25.656 66.6558 27.0399 67.5168 27.7922C68.0247 24.377 69.66 21.231 72.1615 18.8564C74.6631 16.4819 77.8865 15.0158 81.3171 14.6924C82.4374 14.5839 83.5488 14.3971 84.6432 14.1335C85.1983 13.9896 85.769 13.9146 86.3423 13.9101C87.3294 13.895 88.2974 14.1831 89.1163 14.7355Z" fill="#2F2E41"/>
<path d="M70.4439 121.272L65.9108 118.945C65.6679 118.772 65.4954 118.517 65.4248 118.226C65.3541 117.936 65.39 117.63 65.526 117.364C65.6619 117.098 65.8888 116.89 66.1652 116.778C66.4416 116.665 66.7491 116.657 67.0315 116.753L71.5645 119.079C71.8074 119.253 71.9799 119.508 72.0506 119.798C72.1212 120.088 72.0853 120.394 71.9493 120.66C71.8134 120.926 71.5865 121.135 71.3101 121.247C71.0337 121.359 70.7263 121.368 70.4439 121.272Z" fill="#0272BD"/>
<path d="M55.1877 115.039L47.7307 87.2206L67.6578 83.4406L66.5862 102.535L92.7688 129.55C94.1549 129.493 95.5276 129.842 96.7194 130.553C97.9112 131.265 98.8708 132.308 99.481 133.557C100.091 134.805 100.326 136.205 100.156 137.584C99.9861 138.964 99.4194 140.264 98.5248 141.327C97.6303 142.39 96.4466 143.168 95.118 143.568C93.7894 143.968 92.3733 143.972 91.0425 143.58C89.7116 143.187 88.5235 142.415 87.6229 141.358C86.7224 140.301 86.1484 139.003 85.9708 137.625L55.1877 115.039Z" fill="#A0616A"/>
<path d="M45.6916 56.0301C38.9276 61.381 47.6092 91.3114 47.6092 91.3114C48.9534 89.8332 50.5153 111.679 52.1583 110.936C56.8276 108.821 65.386 101.531 68.6855 102.125C70.5723 102.465 68.5955 87.6751 68.5955 87.6751C68.5955 87.6751 68.2319 79.1948 67.5485 68.2931C67.4124 65.2075 66.4993 62.2065 64.8944 59.5695C63.2895 56.9326 61.0449 54.7454 58.3695 53.2115C58.3695 53.2115 52.4556 50.6792 45.6916 56.0301Z" fill="#3F3D56"/>
<path d="M280.134 132.649L9.43188 132.341C7.91061 129.109 6.55995 125.799 5.3855 122.425L273.71 122.71C276.292 125.715 278.454 129.059 280.134 132.649Z" fill="#3F3D56"/>
<path d="M193.914 204.566C192.515 205.244 191.104 205.899 189.68 206.53C187.313 205.183 184.973 203.774 182.647 202.334L191.274 198.537L193.914 204.566Z" fill="#FFB6B6"/>
<path d="M256.809 157.334C255.407 159.219 253.96 161.067 252.469 162.877C251.094 164.546 249.682 166.183 248.234 167.788C247.636 168.453 247.03 169.115 246.411 169.769C245.272 170.993 244.108 172.196 242.919 173.379C240.778 174.054 236.441 175.243 231.792 176.354C228.409 177.159 224.862 177.923 221.873 178.41C220.199 178.711 218.507 178.892 216.807 178.952C214.789 178.969 212.74 178.914 210.685 178.804C208.366 178.681 206.043 178.489 203.748 178.242C197.779 177.615 191.999 176.638 187.012 175.634C185.185 175.271 183.468 174.9 181.888 174.54C178.895 173.865 176.391 173.235 174.578 172.755C172.536 172.22 171.373 171.874 171.373 171.874L166.26 180.456L163.605 184.909L161.656 188.182L161.136 189.049C160.917 188.929 160.698 188.806 160.479 188.686C157.022 186.765 153.47 185.022 149.835 183.466C147.447 182.458 145.029 181.55 142.587 180.775H142.583C141.65 180.48 140.712 180.203 139.772 179.949C140.066 179.157 140.363 178.36 140.664 177.557C141.225 176.059 141.798 174.547 142.382 173.022C143.644 169.718 144.95 166.366 146.295 163.031C147.396 160.292 148.518 157.564 149.653 154.873C150.177 153.633 151.241 152.543 152.728 151.586C153.44 151.137 154.181 150.738 154.948 150.394C159.207 148.45 165.48 147.185 172.393 146.373C172.964 146.308 173.539 146.243 174.117 146.181C179.839 145.578 185.91 145.266 191.588 145.122C194.431 145.05 197.174 145.023 199.726 145.019C200.55 145.019 201.351 145.022 202.13 145.026H202.134C204.237 145.036 206.173 145.067 207.876 145.101C208.208 145.108 208.53 145.119 208.844 145.125H208.848C209.06 145.129 209.269 145.136 209.474 145.139C213.199 145.235 215.484 145.352 215.484 145.352L216.369 138.387L216.551 136.982L216.722 135.645V135.642L216.742 135.474L216.883 135.47L219.345 135.422L240.046 135.018L251.354 134.795L249.562 142.493L246.603 155.196C246.904 157.204 256.912 155.631 256.809 157.334Z" fill="#2F2E41"/>
<path d="M196.466 203.297C195.621 203.729 194.769 204.154 193.914 204.566C192.515 205.244 191.104 205.899 189.68 206.53C187.313 205.183 184.973 203.774 182.647 202.334C178.85 199.983 175.091 197.55 171.322 195.174C170.758 194.814 170.197 194.461 169.632 194.112H169.629C168.076 191.802 166.492 189.395 164.895 186.917C164.871 186.883 164.85 186.849 164.83 186.815C164.419 186.184 164.011 185.549 163.605 184.909C161.05 180.899 158.482 176.717 155.988 172.446L162.302 169.492L174.041 164.001L176.066 163.055L181.888 174.541L187.08 184.785L188.236 187.065L196.466 203.297Z" fill="#2F2E41"/>
<path d="M198.235 148.155L228.164 119.232L236.46 95.6953L224.224 90.3636C217.939 96.3966 211.145 115.187 211.145 115.187L190.549 141.444C190.389 141.499 190.229 141.557 190.071 141.627C189.143 142.037 188.337 142.68 187.729 143.493C187.122 144.307 186.734 145.263 186.604 146.271C186.473 147.278 186.605 148.303 186.984 149.244C187.364 150.186 187.98 151.014 188.773 151.648C189.565 152.281 190.508 152.699 191.508 152.861C192.509 153.023 193.535 152.924 194.486 152.573C195.437 152.222 196.282 151.631 196.939 150.857C197.596 150.083 198.042 149.152 198.235 148.155Z" fill="#FFB8B8"/>
<path d="M220.781 92.9915L236.301 97.9289L236.36 97.9192C242.136 96.9495 246.93 87.4952 249.934 79.7348C250.922 77.1751 250.903 74.3348 249.882 71.7882C248.861 69.2416 246.912 67.1786 244.431 66.0163C242.595 65.1713 240.559 64.8578 238.555 65.1113C236.55 65.3647 234.656 66.175 233.087 67.4505L225.117 73.9763L220.781 92.9915Z" fill="#0272BD"/>
<path d="M256.747 157.682L256.838 157.561C261.68 151.125 255.057 135.188 254.056 132.877L258.559 131.54L257.774 122.95L257.396 119.119L260.897 115.788L260.908 115.703L263.316 98.5333L266.466 87.1697C267.654 82.8738 267.679 78.3387 266.539 74.0298C265.399 69.721 263.136 65.7936 259.981 62.651L253.541 56.244L245.826 44.1427L232.89 43.808L228.238 52.0885C223.912 52.9732 220.033 55.3506 217.276 58.8065C214.52 62.2624 213.061 66.5779 213.153 71.0011L213.591 93.0455L208.949 120.358L208.819 125.32L204.263 130.137L205.105 135.008L201.698 136.368L200.03 143.288C199.393 144.087 195.188 149.413 195.15 150.898C195.144 151.121 195.302 151.341 195.649 151.589C198.371 153.541 213.585 157.769 220.432 155.227C227.726 152.521 256.311 157.603 256.599 157.655L256.747 157.682Z" fill="#0272BD"/>
<path d="M238.228 40.0982C247.693 40.0982 255.366 32.4095 255.366 22.9251C255.366 13.4406 247.693 5.75195 238.228 5.75195C228.763 5.75195 221.09 13.4406 221.09 22.9251C221.09 32.4095 228.763 40.0982 238.228 40.0982Z" fill="#FFB8B8"/>
<path d="M236.137 40.328C238.791 40.3695 241.444 40.1837 244.066 39.7728C246.665 39.2431 252.48 34.9731 254.101 32.4037C255.305 30.4946 256.076 27.5134 256.51 25.3488C257.094 22.4843 257.072 19.5288 256.444 16.6736C255.816 13.8183 254.597 11.127 252.866 8.77392C252.2 7.78968 251.281 7.004 250.207 6.49998C250.112 6.46266 250.014 6.42959 249.915 6.40131C248.349 5.98847 246.942 5.1161 245.874 3.89617C245.667 3.64943 245.443 3.41794 245.203 3.20352C243.996 2.18328 242.566 1.46362 241.029 1.10338C238.548 0.437955 234.957 1.09848 230.356 3.06849C228.045 4.05827 225.517 3.70007 223.573 3.27738C223.464 3.25627 223.351 3.26415 223.246 3.30023C223.141 3.33631 223.047 3.39934 222.974 3.48304C222.146 4.26133 221.056 4.69698 219.921 4.70244C219.226 4.73302 218.497 5.69737 217.615 6.95491C217.415 7.24037 217.182 7.57354 217.014 7.77617L216.991 7.38686L216.598 7.82116C215.98 8.50376 215.544 9.33197 215.332 10.2287C215.119 11.1253 215.137 12.0614 215.382 12.9495C215.628 13.8377 216.094 14.6492 216.737 15.3083C217.379 15.9675 218.178 16.4529 219.059 16.7194C219.758 16.9058 220.474 17.0202 221.197 17.0608C221.634 17.1002 222.087 17.141 222.52 17.2164C223.912 17.5021 225.207 18.1445 226.277 19.0811C227.347 20.0176 228.157 21.2163 228.627 22.56C228.738 22.8706 228.919 23.1514 229.156 23.3809C229.392 23.6103 229.678 23.7822 229.992 23.8832C230.305 23.9842 230.638 24.0117 230.963 23.9636C231.289 23.9154 231.6 23.7929 231.871 23.6055C232.322 23.2529 232.853 23.0151 233.416 22.9123C233.979 22.8095 234.559 22.8448 235.106 23.0151C235.578 23.2784 235.946 23.6965 236.148 24.1993C236.393 24.7595 236.798 25.2339 237.313 25.562C239.075 26.472 239.196 30.5035 238.564 33.8642C237.954 37.1036 236.748 39.4471 235.632 39.5629C234.773 39.652 234.675 39.7132 234.613 39.8654L234.557 40.0017L234.654 40.1292C235.128 40.3017 235.634 40.3694 236.137 40.328Z" fill="#2F2E41"/>
<path d="M225.036 87.7994L218.429 74.5981C208.837 75.2547 189.801 86.3674 189.801 86.3674L153.784 94.0195C152.717 93.6085 151.561 93.4864 150.432 93.6655C149.303 93.8446 148.241 94.3186 147.353 95.0398C146.465 95.7609 145.782 96.7038 145.373 97.7734C144.964 98.8431 144.844 100.002 145.024 101.133C145.204 102.264 145.678 103.328 146.399 104.217C147.12 105.106 148.061 105.789 149.129 106.197C150.197 106.606 151.354 106.725 152.482 106.543C153.611 106.362 154.672 105.885 155.558 105.162L201.374 101.871L225.036 87.7994Z" fill="#FFB8B8"/>
<path d="M222.371 89.9671L239.629 77.1158L242.669 66.1384C243.258 63.9812 243.233 61.7019 242.597 59.5581C241.961 57.4143 240.739 55.4915 239.07 54.0069C236.794 52.0098 233.845 50.9533 230.822 51.051C227.798 51.1488 224.923 52.3935 222.78 54.5336C216.286 61.0292 208.879 70.0911 210.47 76.3749L210.486 76.4386L222.371 89.9671Z" fill="#0272BD"/>
<path d="M201.008 124.341H154.832V130.511H201.008V124.341Z" fill="white"/>
<path d="M83.0023 124.341H36.8262V130.511H83.0023V124.341Z" fill="white"/>
<path d="M88.3945 94.6717V124.047C88.3948 124.421 88.5434 124.78 88.8075 125.045C89.0717 125.31 89.4299 125.459 89.8034 125.459H133.245C133.618 125.459 133.977 125.31 134.241 125.045C134.505 124.78 134.653 124.421 134.654 124.047V94.6717C134.653 94.2977 134.504 93.9393 134.24 93.675C133.976 93.4106 133.618 93.2619 133.245 93.2615H89.8034C89.4302 93.262 89.0723 93.4106 88.8083 93.675C88.5442 93.9393 88.3954 94.2977 88.3945 94.6717Z" fill="#3F3D56"/>
<path d="M89.4136 95.0372V123.685C89.4139 123.885 89.4934 124.076 89.6345 124.218C89.7756 124.359 89.967 124.439 90.1666 124.439H132.883C133.083 124.439 133.274 124.359 133.415 124.218C133.556 124.076 133.636 123.885 133.636 123.685V95.0372C133.636 94.837 133.557 94.6449 133.416 94.5032C133.274 94.3614 133.083 94.2816 132.883 94.2811H90.1666C89.9667 94.2816 89.7752 94.3614 89.634 94.5032C89.4929 94.6449 89.4136 94.837 89.4136 95.0372Z" fill="#0272BD"/>
<path d="M87.4859 129.776C87.5655 129.876 87.6666 129.957 87.7818 130.012C87.8969 130.067 88.023 130.095 88.1507 130.095H134.666C134.793 130.095 134.919 130.066 135.034 130.011C135.149 129.956 135.25 129.876 135.33 129.777C135.41 129.678 135.467 129.563 135.497 129.439C135.527 129.315 135.529 129.186 135.503 129.061L134.781 125.624C134.751 125.484 134.686 125.354 134.593 125.245C134.5 125.136 134.381 125.052 134.248 125.001C134.151 124.963 134.048 124.944 133.944 124.944H88.8699C88.7659 124.944 88.6629 124.963 88.5661 125.001C88.4325 125.052 88.3137 125.136 88.2206 125.245C88.1275 125.354 88.0631 125.484 88.0332 125.624L87.3111 129.061C87.2854 129.186 87.2878 129.315 87.318 129.438C87.3483 129.562 87.4056 129.677 87.4859 129.776Z" fill="#2F2E41"/>
<path d="M132.348 126.424H133.447C133.539 126.424 133.614 126.349 133.614 126.257V125.73C133.614 125.638 133.539 125.563 133.447 125.563H132.348C132.256 125.563 132.181 125.638 132.181 125.73V126.257C132.181 126.349 132.256 126.424 132.348 126.424Z" fill="#3F3D56"/>
<path d="M129.483 126.424H130.581C130.674 126.424 130.748 126.349 130.748 126.257V125.73C130.748 125.638 130.674 125.563 130.581 125.563H129.483C129.39 125.563 129.316 125.638 129.316 125.73V126.257C129.316 126.349 129.39 126.424 129.483 126.424Z" fill="#3F3D56"/>
<path d="M126.617 126.424H127.716C127.808 126.424 127.883 126.349 127.883 126.257V125.73C127.883 125.638 127.808 125.563 127.716 125.563H126.617C126.525 125.563 126.45 125.638 126.45 125.73V126.257C126.45 126.349 126.525 126.424 126.617 126.424Z" fill="#3F3D56"/>
<path d="M123.752 126.424H124.851C124.943 126.424 125.018 126.349 125.018 126.257V125.73C125.018 125.638 124.943 125.563 124.851 125.563H123.752C123.66 125.563 123.585 125.638 123.585 125.73V126.257C123.585 126.349 123.66 126.424 123.752 126.424Z" fill="#3F3D56"/>
<path d="M120.887 126.424H121.985C122.078 126.424 122.152 126.349 122.152 126.257V125.73C122.152 125.638 122.078 125.563 121.985 125.563H120.887C120.794 125.563 120.72 125.638 120.72 125.73V126.257C120.72 126.349 120.794 126.424 120.887 126.424Z" fill="#3F3D56"/>
<path d="M118.021 126.424H119.12C119.212 126.424 119.287 126.349 119.287 126.257V125.73C119.287 125.638 119.212 125.563 119.12 125.563H118.021C117.929 125.563 117.854 125.638 117.854 125.73V126.257C117.854 126.349 117.929 126.424 118.021 126.424Z" fill="#3F3D56"/>
<path d="M115.156 126.424H116.255C116.347 126.424 116.422 126.349 116.422 126.257V125.73C116.422 125.638 116.347 125.563 116.255 125.563H115.156C115.064 125.563 114.989 125.638 114.989 125.73V126.257C114.989 126.349 115.064 126.424 115.156 126.424Z" fill="#3F3D56"/>
<path d="M112.291 126.424H113.389C113.482 126.424 113.556 126.349 113.556 126.257V125.73C113.556 125.638 113.482 125.563 113.389 125.563H112.291C112.198 125.563 112.124 125.638 112.124 125.73V126.257C112.124 126.349 112.198 126.424 112.291 126.424Z" fill="#3F3D56"/>
<path d="M109.425 126.424H110.524C110.616 126.424 110.691 126.349 110.691 126.257V125.73C110.691 125.638 110.616 125.563 110.524 125.563H109.425C109.333 125.563 109.259 125.638 109.259 125.73V126.257C109.259 126.349 109.333 126.424 109.425 126.424Z" fill="#3F3D56"/>
<path d="M106.56 126.424H107.659C107.751 126.424 107.826 126.349 107.826 126.257V125.73C107.826 125.638 107.751 125.563 107.659 125.563H106.56C106.468 125.563 106.393 125.638 106.393 125.73V126.257C106.393 126.349 106.468 126.424 106.56 126.424Z" fill="#3F3D56"/>
<path d="M103.695 126.424H104.793C104.886 126.424 104.96 126.349 104.96 126.257V125.73C104.96 125.638 104.886 125.563 104.793 125.563H103.695C103.603 125.563 103.528 125.638 103.528 125.73V126.257C103.528 126.349 103.603 126.424 103.695 126.424Z" fill="#3F3D56"/>
<path d="M100.83 126.424H101.928C102.02 126.424 102.095 126.349 102.095 126.257V125.73C102.095 125.638 102.02 125.563 101.928 125.563H100.83C100.737 125.563 100.663 125.638 100.663 125.73V126.257C100.663 126.349 100.737 126.424 100.83 126.424Z" fill="#3F3D56"/>
<path d="M97.9643 126.424H99.063C99.1552 126.424 99.23 126.349 99.23 126.257V125.73C99.23 125.638 99.1552 125.563 99.063 125.563H97.9643C97.8721 125.563 97.7973 125.638 97.7973 125.73V126.257C97.7973 126.349 97.8721 126.424 97.9643 126.424Z" fill="#3F3D56"/>
<path d="M95.0991 126.424H96.1978C96.29 126.424 96.3647 126.349 96.3647 126.257V125.73C96.3647 125.638 96.29 125.563 96.1978 125.563H95.0991C95.0069 125.563 94.9321 125.638 94.9321 125.73V126.257C94.9321 126.349 95.0069 126.424 95.0991 126.424Z" fill="#3F3D56"/>
<path d="M92.2336 126.424H93.3323C93.4245 126.424 93.4993 126.349 93.4993 126.257V125.73C93.4993 125.638 93.4245 125.563 93.3323 125.563H92.2336C92.1414 125.563 92.0666 125.638 92.0666 125.73V126.257C92.0666 126.349 92.1414 126.424 92.2336 126.424Z" fill="#3F3D56"/>
<path d="M89.3684 126.424H90.4671C90.5593 126.424 90.634 126.349 90.634 126.257V125.73C90.634 125.638 90.5593 125.563 90.4671 125.563H89.3684C89.2761 125.563 89.2014 125.638 89.2014 125.73V126.257C89.2014 126.349 89.2761 126.424 89.3684 126.424Z" fill="#3F3D56"/>
<path d="M132.382 127.86H133.48C133.573 127.86 133.647 127.785 133.647 127.692V127.166C133.647 127.073 133.573 126.998 133.48 126.998H132.382C132.29 126.998 132.215 127.073 132.215 127.166V127.692C132.215 127.785 132.29 127.86 132.382 127.86Z" fill="#3F3D56"/>
<path d="M129.517 127.86H130.615C130.707 127.86 130.782 127.785 130.782 127.692V127.166C130.782 127.073 130.707 126.998 130.615 126.998H129.517C129.424 126.998 129.35 127.073 129.35 127.166V127.692C129.35 127.785 129.424 127.86 129.517 127.86Z" fill="#3F3D56"/>
<path d="M126.651 127.86H127.75C127.842 127.86 127.917 127.785 127.917 127.692V127.166C127.917 127.073 127.842 126.998 127.75 126.998H126.651C126.559 126.998 126.484 127.073 126.484 127.166V127.692C126.484 127.785 126.559 127.86 126.651 127.86Z" fill="#3F3D56"/>
<path d="M123.786 127.86H124.885C124.977 127.86 125.052 127.785 125.052 127.692V127.166C125.052 127.073 124.977 126.998 124.885 126.998H123.786C123.694 126.998 123.619 127.073 123.619 127.166V127.692C123.619 127.785 123.694 127.86 123.786 127.86Z" fill="#3F3D56"/>
<path d="M120.921 127.86H122.019C122.112 127.86 122.186 127.785 122.186 127.692V127.166C122.186 127.073 122.112 126.998 122.019 126.998H120.921C120.828 126.998 120.754 127.073 120.754 127.166V127.692C120.754 127.785 120.828 127.86 120.921 127.86Z" fill="#3F3D56"/>
<path d="M118.055 127.86H119.154C119.246 127.86 119.321 127.785 119.321 127.692V127.166C119.321 127.073 119.246 126.998 119.154 126.998H118.055C117.963 126.998 117.888 127.073 117.888 127.166V127.692C117.888 127.785 117.963 127.86 118.055 127.86Z" fill="#3F3D56"/>
<path d="M115.19 127.86H116.289C116.381 127.86 116.456 127.785 116.456 127.692V127.166C116.456 127.073 116.381 126.998 116.289 126.998H115.19C115.098 126.998 115.023 127.073 115.023 127.166V127.692C115.023 127.785 115.098 127.86 115.19 127.86Z" fill="#3F3D56"/>
<path d="M112.325 127.86H113.423C113.516 127.86 113.59 127.785 113.59 127.692V127.166C113.59 127.073 113.516 126.998 113.423 126.998H112.325C112.232 126.998 112.158 127.073 112.158 127.166V127.692C112.158 127.785 112.232 127.86 112.325 127.86Z" fill="#3F3D56"/>
<path d="M109.459 127.86H110.558C110.65 127.86 110.725 127.785 110.725 127.692V127.166C110.725 127.073 110.65 126.998 110.558 126.998H109.459C109.367 126.998 109.292 127.073 109.292 127.166V127.692C109.292 127.785 109.367 127.86 109.459 127.86Z" fill="#3F3D56"/>
<path d="M106.594 127.86H107.693C107.785 127.86 107.86 127.785 107.86 127.692V127.166C107.86 127.073 107.785 126.998 107.693 126.998H106.594C106.502 126.998 106.427 127.073 106.427 127.166V127.692C106.427 127.785 106.502 127.86 106.594 127.86Z" fill="#3F3D56"/>
<path d="M103.729 127.86H104.827C104.92 127.86 104.994 127.785 104.994 127.692V127.166C104.994 127.073 104.92 126.998 104.827 126.998H103.729C103.636 126.998 103.562 127.073 103.562 127.166V127.692C103.562 127.785 103.636 127.86 103.729 127.86Z" fill="#3F3D56"/>
<path d="M100.863 127.86H101.962C102.054 127.86 102.129 127.785 102.129 127.692V127.166C102.129 127.073 102.054 126.998 101.962 126.998H100.863C100.771 126.998 100.696 127.073 100.696 127.166V127.692C100.696 127.785 100.771 127.86 100.863 127.86Z" fill="#3F3D56"/>
<path d="M97.998 127.86H99.0967C99.1889 127.86 99.2637 127.785 99.2637 127.692V127.166C99.2637 127.073 99.1889 126.998 99.0967 126.998H97.998C97.9058 126.998 97.831 127.073 97.831 127.166V127.692C97.831 127.785 97.9058 127.86 97.998 127.86Z" fill="#3F3D56"/>
<path d="M95.1328 127.86H96.2315C96.3237 127.86 96.3984 127.785 96.3984 127.692V127.166C96.3984 127.073 96.3237 126.998 96.2315 126.998H95.1328C95.0405 126.998 94.9658 127.073 94.9658 127.166V127.692C94.9658 127.785 95.0405 127.86 95.1328 127.86Z" fill="#3F3D56"/>
<path d="M92.2675 127.86H93.3662C93.4584 127.86 93.5332 127.785 93.5332 127.692V127.166C93.5332 127.073 93.4584 126.998 93.3662 126.998H92.2675C92.1753 126.998 92.1006 127.073 92.1006 127.166V127.692C92.1006 127.785 92.1753 127.86 92.2675 127.86Z" fill="#3F3D56"/>
<path d="M89.4023 127.86H90.501C90.5932 127.86 90.668 127.785 90.668 127.692V127.166C90.668 127.073 90.5932 126.998 90.501 126.998H89.4023C89.3101 126.998 89.2353 127.073 89.2353 127.166V127.692C89.2353 127.785 89.3101 127.86 89.4023 127.86Z" fill="#3F3D56"/>
<path d="M108.6 129.582H119.727C119.819 129.582 119.894 129.507 119.894 129.415V128.888C119.894 128.796 119.819 128.721 119.727 128.721H108.6C108.508 128.721 108.433 128.796 108.433 128.888V129.415C108.433 129.507 108.508 129.582 108.6 129.582Z" fill="#3F3D56"/>
</g>
<defs>
<clipPath id="clip0_170_45">
<rect width="285" height="217" fill="white"/>
</clipPath>
</defs>
</svg>
