<svg width="19" height="12" viewBox="0 0 19 12" fill="none" xmlns="http://www.w3.org/2000/svg">
<path id="Vector" d="M17.6812 0.255765L9.49916 9.34777L1.31713 0.255765C1.17094 0.0929927 0.974696 0.00186604 0.770346 0.00186604C0.565996 0.00186604 0.369754 0.0929927 0.223568 0.255765C0.152785 0.334824 0.0965517 0.429188 0.0581626 0.533333C0.0197735 0.637477 0 0.749307 0 0.862272C0 0.975237 0.0197735 1.08707 0.0581626 1.19121C0.0965517 1.29535 0.152785 1.38972 0.223568 1.46878L8.92783 11.143C9.08069 11.3129 9.2857 11.4079 9.49916 11.4079C9.71262 11.4079 9.91764 11.3129 10.0705 11.143L18.7748 1.47065C18.846 1.39153 18.9027 1.29693 18.9414 1.19244C18.9801 1.08795 19 0.975686 19 0.862272C19 0.748857 18.9801 0.636591 18.9414 0.532102C18.9027 0.427612 18.846 0.333017 18.7748 0.253898C18.6286 0.0911258 18.4323 0 18.228 0C18.0236 0 17.8274 0.0911258 17.6812 0.253898V0.255765Z" fill="#0071BC"/>
</svg>
