<svg version="1.1" xmlns="http://www.w3.org/2000/svg" xmlns:xlink="http://www.w3.org/1999/xlink" width="19" height="12" viewBox="0,0,256,161.67188"><g fill="#0071bc" fill-rule="nonzero" stroke="none" stroke-width="1" stroke-linecap="butt" stroke-linejoin="miter" stroke-miterlimit="10" stroke-dasharray="" stroke-dashoffset="0" font-family="none" font-weight="none" font-size="none" text-anchor="none" style="mix-blend-mode: normal"><g transform="translate(256,157.68916) rotate(180) scale(13.47368,13.47368)"><path d="M17.6812,0.25577l-8.18204,9.09201l-8.18203,-9.092c-0.14619,-0.16277 -0.34243,-0.2539 -0.54678,-0.2539c-0.20435,0 -0.40059,0.09113 -0.54678,0.2539c-0.07078,0.07906 -0.12702,0.17342 -0.16541,0.27757c-0.03839,0.10414 -0.05816,0.21597 -0.05816,0.32894c0,0.11296 0.01977,0.2248 0.05816,0.32894c0.03839,0.10414 0.09462,0.19851 0.16541,0.27757l8.70426,9.67422c0.15286,0.1699 0.35787,0.2649 0.57133,0.2649c0.21346,0 0.41848,-0.095 0.57134,-0.2649l8.7043,-9.67235c0.0712,-0.07912 0.1279,-0.17372 0.1666,-0.27821c0.0387,-0.10449 0.0586,-0.21675 0.0586,-0.33017c0,-0.11342 -0.0199,-0.22568 -0.0586,-0.33017c-0.0387,-0.10449 -0.0954,-0.19908 -0.1666,-0.2782c-0.1462,-0.16277 -0.3425,-0.2539 -0.5468,-0.2539c-0.2044,0 -0.4006,0.09113 -0.5468,0.2539z" id="Vector"></path></g></g></svg>
