<svg xmlns="http://www.w3.org/2000/svg" xmlns:xlink="http://www.w3.org/1999/xlink" viewBox="0 0 510.98 511"><defs><style>.cls-1{fill:none;}.cls-2{clip-path:url(#clip-path);}.cls-3{fill:#f50a58;}</style><clipPath id="clip-path" transform="translate(0)"><rect class="cls-1" width="510" height="511"/></clipPath></defs><g id="Layer_2" data-name="Layer 2"><g id="Layer_1-2" data-name="Layer 1"><g class="cls-2"><path d="M341.3,119.78a10,10,0,1,1-10-10,10,10,0,0,1,10,10" transform="translate(0)"/><path class="cls-3" d="M391.21,0A119.91,119.91,0,0,0,271.43,119.78a118.47,118.47,0,0,0,20.46,66.75l-19.95,59.85a10,10,0,0,0,13.93,12.08l57.74-28.87a118.24,118.24,0,0,0,47.6,10A119.78,119.78,0,0,0,391.21,0m0,219.59a98.87,98.87,0,0,1-43.43-10.05,10,10,0,0,0-8.81.05L298.5,229.83l13.93-41.77A10,10,0,0,0,311,179a98.83,98.83,0,0,1-19.59-59.18,99.82,99.82,0,1,1,99.82,99.81" transform="translate(0)"/><path class="cls-3" d="M197.57,321.4a10,10,0,1,1-10-10,10,10,0,0,1,10,10" transform="translate(0)"/><path d="M346.24,315a10,10,0,0,0-14.12,0l-47.84,47.84c-6.8,6.79-17.28,8.18-24.93,3.29a375.72,375.72,0,0,1-31.91-22.81A10,10,0,0,0,215,359a401.81,401.81,0,0,0,33.61,24c15.49,9.89,36.43,7.37,49.79-6l40.78-40.77,93.73,93.72L396,466.82c-23.84,23.84-59.69,30.89-89.21,17.55C149.77,413.43,68.08,293.14,27.2,204.73c-14-30.36-7.3-66.93,16.77-91L80.35,77.34l93.74,93.73-40.78,40.78c-13.38,13.37-15.89,34.31-6,49.8,7.06,11,14.75,21.86,22.86,32.15a10,10,0,1,0,15.67-12.35c-7.7-9.78-15-20.06-21.71-30.55-4.89-7.65-3.5-18.14,3.29-24.93l47.84-47.84a10,10,0,0,0,0-14.12L87.41,56.17a10,10,0,0,0-14.11,0L29.86,99.61c-30,30-38.31,75.58-20.78,113.5C67.29,339,165.94,442.64,298.55,502.56c37.26,16.85,82.06,7.87,111.55-21.63l44-44a10,10,0,0,0,0-14.12Z" transform="translate(0)"/></g></g></g></svg>