<svg xmlns="http://www.w3.org/2000/svg" xmlns:xlink="http://www.w3.org/1999/xlink" viewBox="0 0 384 384.03"><defs><style>.cls-1{fill:none;}.cls-2{clip-path:url(#clip-path);}.cls-3{fill:#f50a58;}.cls-4{clip-path:url(#clip-path-2);}</style><clipPath id="clip-path" transform="translate(0 0)"><rect class="cls-1" width="384" height="384.03"/></clipPath><clipPath id="clip-path-2" transform="translate(0 0)"><rect class="cls-1" y="0.03" width="384" height="384"/></clipPath></defs><g id="Layer_2" data-name="Layer 2"><g id="Layer_1-2" data-name="Layer 1"><g class="cls-2"><path class="cls-3" d="M199.93,217.56a141.34,141.34,0,0,1-42.27-6.66,63.92,63.92,0,0,1-42.47-48.41c-4.82-23.21,4-47.75,24.08-67.33q3.24-3.15,6.74-6a81.59,81.59,0,0,1,74.27-16,62.18,62.18,0,0,1,43.24,57.2,58.89,58.89,0,0,1-13.77,41.63,32.38,32.38,0,0,1-31.66,11.63,18.28,18.28,0,0,1-11.75-8.16,17.36,17.36,0,0,1-1.69-13.51c5.6-21.15,11.29-53.3,11.34-53.63a6.4,6.4,0,0,1,12.61,2.23c-.24,1.33-5.84,33-11.58,54.68a4.66,4.66,0,0,0,.29,3.64,5.69,5.69,0,0,0,3.71,2.28,19.86,19.86,0,0,0,19.1-7.58,46.08,46.08,0,0,0,10.63-32.56,49.5,49.5,0,0,0-34.28-45.63A68.47,68.47,0,0,0,154.18,99c-2.06,1.71-4.06,3.5-6,5.36-9.95,9.68-25.84,29.76-20.48,55.56a51.8,51.8,0,0,0,33.82,38.81c30,9.57,73.15,10.73,95.87-17.53a6.4,6.4,0,0,1,10,8c-16.8,20.9-42.38,28.37-67.46,28.37" transform="translate(0 0)"/><path class="cls-3" d="M178,184.38a29.41,29.41,0,0,1-18.69-6.28c-12.28-9.83-12.62-26.91-9.18-38.54a58.41,58.41,0,0,1,4.65-11.17,52.45,52.45,0,0,1,22-22.82,30.25,30.25,0,0,1,35.6,5.74,47.79,47.79,0,0,1,10.2,17.57,6.4,6.4,0,0,1-12.05,4.3,35.73,35.73,0,0,0-7.4-13,17.34,17.34,0,0,0-20.7-3.09A40.1,40.1,0,0,0,166,134.55a46.24,46.24,0,0,0-3.6,8.67c-2.49,8.42-1.94,19.4,4.92,24.89,7.5,6,20.16,3.48,27.28-2.66A71.38,71.38,0,0,0,208.15,149,6.4,6.4,0,1,1,219,155.74a83.51,83.51,0,0,1-16,19.37,39.28,39.28,0,0,1-25,9.27" transform="translate(0 0)"/></g><g class="cls-4"><path d="M364.8,384H19.2A19.22,19.22,0,0,1,0,364.83V128a6.39,6.39,0,0,1,10.49-4.92l157,130.51a38.43,38.43,0,0,0,48.95,0l157-130.5A6.4,6.4,0,0,1,384,128v236.8A19.22,19.22,0,0,1,364.8,384M12.8,141.67V364.83a6.41,6.41,0,0,0,6.4,6.4H364.8a6.41,6.41,0,0,0,6.4-6.4V141.67L224.65,263.46a51.27,51.27,0,0,1-65.3,0Z" transform="translate(0 0)"/><path d="M6.41,134.43A6.41,6.41,0,0,1,2.7,122.8L60.3,82a6.4,6.4,0,0,1,7.4,10.45L10.1,133.25a6.35,6.35,0,0,1-3.69,1.18" transform="translate(0 0)"/><path d="M377.59,134.43a6.35,6.35,0,0,1-3.69-1.18L316.3,92.42A6.4,6.4,0,0,1,323.7,82l57.6,40.83a6.41,6.41,0,0,1-3.71,11.63" transform="translate(0 0)"/><path d="M251.13,44.83a6.41,6.41,0,0,1-3.7-1.18L216.84,22a38.45,38.45,0,0,0-49.29-.29l-31,22a6.4,6.4,0,1,1-7.41-10.44l30.59-21.7a51,51,0,0,1,64.88.29l30.21,21.4a6.4,6.4,0,0,1-3.71,11.63" transform="translate(0 0)"/></g><g class="cls-2"><path d="M10.56,380.57a6.39,6.39,0,0,1-4.09-11.32l146-121.34a6.4,6.4,0,1,1,8.18,9.84l-146,121.34a6.34,6.34,0,0,1-4.08,1.48" transform="translate(0 0)"/><path d="M373.43,380.57a6.36,6.36,0,0,1-4.08-1.48l-146-121.34a6.4,6.4,0,1,1,8.18-9.84l146,121.34a6.4,6.4,0,0,1-4.1,11.32" transform="translate(0 0)"/><path d="M320,182.3a6.4,6.4,0,0,1-6.4-6.4v-131c0,.13-.28-.05-.71-.05H71.1a1,1,0,0,0-.76.27l.06,130.8a6.4,6.4,0,0,1-12.8,0V44.83A13.16,13.16,0,0,1,71.1,32H312.89a13.18,13.18,0,0,1,13.51,12.8V175.9a6.41,6.41,0,0,1-6.4,6.4" transform="translate(0 0)"/></g></g></g></svg>