<svg xmlns="http://www.w3.org/2000/svg" xmlns:xlink="http://www.w3.org/1999/xlink" viewBox="0 0 384 344.36"><defs><style>.cls-1{fill:none;}.cls-2{clip-path:url(#clip-path);}.cls-3{fill:#22d26b;}</style><clipPath id="clip-path" transform="translate(0 -0.82)"><rect class="cls-1" width="384" height="346"/></clipPath></defs><g id="Layer_2" data-name="Layer 2"><g id="Layer_1-2" data-name="Layer 1"><g class="cls-2"><path d="M96.48,253.05l-.68,0a64.43,64.43,0,0,1-15.4-2.85L46.18,309.41a11.25,11.25,0,0,0,4.24,15.44L84.1,343.74a11.25,11.25,0,0,0,15.25-4.19l50-86.5Z" transform="translate(0 -0.82)"/><path class="cls-3" d="M286.49,2.49,184.85,64.72V243.93l101.77,60.46a11.26,11.26,0,0,0,17-9.68V12.09a11.26,11.26,0,0,0-17.14-9.6Z" transform="translate(0 -0.82)"/></g><path class="cls-3" d="M36.4,191V115.46a61,61,0,0,1,1.33-12.62H21.37A21.37,21.37,0,0,0,0,124.21v58.07a21.37,21.37,0,0,0,21.37,21.37H37.73A60.45,60.45,0,0,1,36.4,191Z" transform="translate(0 -0.82)"/><path d="M162.34,230.55H97.16C76,229.27,58.91,212.15,58.91,191V115.46c0-21.12,17.12-38.24,38.25-37h65.18Z" transform="translate(0 -0.82)"/><path class="cls-3" d="M353,245.22a11.22,11.22,0,0,1-8-3.3l-22.7-22.69a11.25,11.25,0,0,1,15.92-15.91L361,226a11.26,11.26,0,0,1-8,19.21Z" transform="translate(0 -0.82)"/><path class="cls-3" d="M330.34,110.22a11.26,11.26,0,0,1-8-19.21l22.7-22.69A11.25,11.25,0,0,1,361,84.23l-22.7,22.69a11.22,11.22,0,0,1-8,3.3Z" transform="translate(0 -0.82)"/><path class="cls-3" d="M372.75,166.37H340.64a11.25,11.25,0,0,1,0-22.5h32.11a11.25,11.25,0,0,1,0,22.5Z" transform="translate(0 -0.82)"/></g></g></svg>