<svg xmlns="http://www.w3.org/2000/svg" viewBox="0 0 384 384"><defs><style>.cls-1{fill:#22d26b;}</style></defs><g id="Layer_2" data-name="Layer 2"><g id="Layer_1-2" data-name="Layer 1"><path d="M135.75,338.25V361.5H102a11.25,11.25,0,0,0,0,22.5H282a11.25,11.25,0,0,0,0-22.5H248.25V338.25Z"/><path d="M11.25,315.75h361.5A11.24,11.24,0,0,0,384,304.5V57a11.24,11.24,0,0,0-11.25-11.25H349.5V237a33.79,33.79,0,0,1-33.75,33.75H68.25A33.79,33.79,0,0,1,34.5,237V45.75H11.25A11.24,11.24,0,0,0,0,57V304.5a11.24,11.24,0,0,0,11.25,11.25Z"/><path d="M261.17,174.42l-28.87-9.63,9.62,28.88Z"/><path class="cls-1" d="M327,11.25A11.24,11.24,0,0,0,315.75,0H68.25A11.24,11.24,0,0,0,57,11.25v79.5H327ZM102,57a11.25,11.25,0,1,1,11.25-11.25A11.25,11.25,0,0,1,102,57Zm45,0a11.25,11.25,0,1,1,11.25-11.25A11.25,11.25,0,0,1,147,57Zm45,0a11.25,11.25,0,1,1,11.25-11.25A11.25,11.25,0,0,1,192,57Z"/><path class="cls-1" d="M57,237a11.24,11.24,0,0,0,11.25,11.25h247.5A11.24,11.24,0,0,0,327,237V113.25H57Zm149.55-97.95a11.29,11.29,0,0,1,11.51-2.72l67.5,22.5a11.26,11.26,0,0,1,4.4,18.62L275.41,192,290,206.55a11.24,11.24,0,0,1-15.9,15.9L259.5,207.91,245,222.45a11.25,11.25,0,0,1-18.63-4.39l-22.5-67.5a11.27,11.27,0,0,1,2.73-11.51ZM102,135.75h67.5a11.25,11.25,0,0,1,0,22.5H102a11.25,11.25,0,0,1,0-22.5Zm0,45h67.5a11.25,11.25,0,0,1,0,22.5H102a11.25,11.25,0,0,1,0-22.5Z"/></g></g></svg>