<svg xmlns="http://www.w3.org/2000/svg" viewBox="0 0 381 381"><defs><style>.cls-1{fill:#22d26b;}</style></defs><g id="Layer_2" data-name="Layer 2"><g id="Layer_1-2" data-name="Layer 1"><path class="cls-1" d="M373.35,133.35H277.73a7.71,7.71,0,0,0-5.41,2.25l-49.5,49.5a7.6,7.6,0,0,0,0,10.8l49.5,49.5a7.71,7.71,0,0,0,5.41,2.25h95.62A7.64,7.64,0,0,0,381,240V141a7.59,7.59,0,0,0-7.65-7.65Zm-49.5,76.2a19.05,19.05,0,1,1,19-19.05,19.08,19.08,0,0,1-19,19.05Z"/><path d="M185.1,158.18a7.61,7.61,0,0,0,10.8,0l49.5-49.5a7.71,7.71,0,0,0,2.25-5.41V7.65A7.59,7.59,0,0,0,240,0H141a7.64,7.64,0,0,0-7.65,7.65v95.62a7.71,7.71,0,0,0,2.25,5.41ZM190.5,38.1a19.05,19.05,0,1,1-19.05,19,19.08,19.08,0,0,1,19.05-19Z"/><path class="cls-1" d="M158.18,185.1l-49.5-49.5a7.71,7.71,0,0,0-5.41-2.25H7.65A7.64,7.64,0,0,0,0,141v99a7.64,7.64,0,0,0,7.65,7.65h95.62a7.71,7.71,0,0,0,5.41-2.25l49.5-49.5a7.6,7.6,0,0,0,0-10.8Zm-101,24.45A19.05,19.05,0,1,1,76.2,190.5a19.08,19.08,0,0,1-19.05,19.05Z"/><path d="M195.9,222.82a7.61,7.61,0,0,0-10.8,0l-49.5,49.5a7.71,7.71,0,0,0-2.25,5.41v95.62A7.64,7.64,0,0,0,141,381h99a7.63,7.63,0,0,0,7.65-7.65V277.73a7.71,7.71,0,0,0-2.25-5.41ZM190.5,342.9a19,19,0,1,1,19.05-19,19.08,19.08,0,0,1-19.05,19Z"/></g></g></svg>